{
  "accessors": [
    {
      "bufferView": 2,
      "componentType": 5126,
      "count": 65532,
      "max": [
        0.2669700086116791,
        0.4637700021266937,
        0.26326999068260193
      ],
      "min": [
        -0.2669700086116791,
        0.0,
        -0.26326999068260193
      ],
      "type": "VEC3"
    },
    {
      "bufferView": 2,
      "byteOffset": 786384,
      "componentType": 5126,
      "count": 65532,
      "max": [
        0.9999685883522034,
        1.0,
        0.9999006986618042
      ],
      "min": [
        -0.9998250007629395,
        -1.0,
        -0.9999979138374329
      ],
      "type": "VEC3"
    },
    {
      "bufferView": 3,
      "componentType": 5126,
      "count": 65532,
      "max": [
        0.9999915957450867,
        0.9999725818634033,
        0.9998884797096252,
        1.0
      ],
      "min": [
        -0.9999967813491821,
        -0.9999772906303406,
        -0.9999610781669617,
        -1.0
      ],
      "type": "VEC4"
    },
    {
      "bufferView": 1,
      "componentType": 5126,
      "count": 65532,
      "max": [
        1.4355800151824951,
        2.4346001148223877
      ],
      "min": [
        -1.4355800151824951,
        -0.43557998538017273
      ],
      "type": "VEC2"
    },
    {
      "bufferView": 1,
      "byteOffset": 524256,
      "componentType": 5126,
      "count": 65532,
      "max": [
        1.4355800151824951,
        2.4346001148223877
      ],
      "min": [
        -1.4355800151824951,
        -0.43557998538017273
      ],
      "type": "VEC2"
    },
    {
      "bufferView": 0,
      "componentType": 5125,
      "count": 338847,
      "type": "SCALAR"
    },
    {
      "bufferView": 2,
      "byteOffset": 1572768,
      "componentType": 5126,
      "count": 51574,
      "max": [
        0.2669700086116791,
        0.5115799903869629,
        0.26308000087738037
      ],
      "min": [
        -0.2666099965572357,
        0.0019000000320374966,
        -0.2631399929523468
      ],
      "type": "VEC3"
    },
    {
      "bufferView": 2,
      "byteOffset": 2191656,
      "componentType": 5126,
      "count": 51574,
      "max": [
        0.9999685883522034,
        1.0,
        0.9999820590019226
      ],
      "min": [
        -0.999946117401123,
        -1.0,
        -0.9999866485595703
      ],
      "type": "VEC3"
    },
    {
      "bufferView": 3,
      "byteOffset": 1048512,
      "componentType": 5126,
      "count": 51574,
      "max": [
        0.9999915957450867,
        0.9998889565467834,
        0.9994298219680786,
        1.0
      ],
      "min": [
        -0.9999967813491821,
        -0.9999932050704956,
        -0.9999526739120483,
        -1.0
      ],
      "type": "VEC4"
    },
    {
      "bufferView": 1,
      "byteOffset": 1048512,
      "componentType": 5126,
      "count": 51574,
      "max": [
        1.4249800443649292,
        2.435580015182495
      ],
      "min": [
        -1.4315999746322632,
        -0.4204599857330322
      ],
      "type": "VEC2"
    },
    {
      "bufferView": 1,
      "byteOffset": 1461104,
      "componentType": 5126,
      "count": 51574,
      "max": [
        1.4249800443649292,
        2.435580015182495
      ],
      "min": [
        -1.4315999746322632,
        -0.4204599857330322
      ],
      "type": "VEC2"
    },
    {
      "bufferView": 0,
      "byteOffset": 1355388,
      "componentType": 5125,
      "count": 231381,
      "type": "SCALAR"
    }
  ],
  "asset": {
    "extras": {
      "author": "Twinbru (https://sketchfab.com/twinbru)",
      "license": "SKETCHFAB Standard (https://sketchfab.com/licenses)",
      "source": "https://sketchfab.com/3d-models/animal-green-velvet-1780018-37891a679b0648c296138cfb98194e28",
      "title": "Animal Green Velvet 1780018"
    },
    "generator": "Sketchfab-15.96.0",
    "version": "2.0"
  },
  "bufferViews": [
    {
      "buffer": 0,
      "byteLength": 2280912,
      "name": "floatBufferViews",
      "target": 34963
    },
    {
      "buffer": 0,
      "byteLength": 1873696,
      "byteOffset": 2280912,
      "byteStride": 8,
      "name": "floatBufferViews",
      "target": 34962
    },
    {
      "buffer": 0,
      "byteLength": 2810544,
      "byteOffset": 4154608,
      "byteStride": 12,
      "name": "floatBufferViews",
      "target": 34962
    },
    {
      "buffer": 0,
      "byteLength": 1873696,
      "byteOffset": 6965152,
      "byteStride": 16,
      "name": "floatBufferViews",
      "target": 34962
    }
  ],
  "buffers": [
    {
      "byteLength": 8838848,
      "uri": "scene.bin"
    }
  ],
  "images": [
    {
      "uri": "textures/material_0_baseColor.png"
    },
    {
      "uri": "textures/material_0_metallicRoughness.png"
    },
    {
      "uri": "textures/material_0_normal.png"
    }
  ],
  "materials": [
    {
      "doubleSided": true,
      "name": "material_0",
      "normalTexture": {
        "index": 2,
        "texCoord": 1
      },
      "occlusionTexture": {
        "index": 1
      },
      "pbrMetallicRoughness": {
        "baseColorTexture": {
          "index": 0
        },
        "metallicRoughnessTexture": {
          "index": 1
        }
      }
    }
  ],
  "meshes": [
    {
      "name": "Object_0",
      "primitives": [
        {
          "attributes": {
            "NORMAL": 1,
            "POSITION": 0,
            "TANGENT": 2,
            "TEXCOORD_0": 3,
            "TEXCOORD_1": 4
          },
          "indices": 5,
          "material": 0,
          "mode": 4
        }
      ]
    },
    {
      "name": "Object_1",
      "primitives": [
        {
          "attributes": {
            "NORMAL": 7,
            "POSITION": 6,
            "TANGENT": 8,
            "TEXCOORD_0": 9,
            "TEXCOORD_1": 10
          },
          "indices": 11,
          "material": 0,
          "mode": 4
        }
      ]
    }
  ],
  "nodes": [
    {
      "children": [
        1
      ],
      "matrix": [
        1.0,
        0.0,
        0.0,
        0.0,
        0.0,
        2.220446049250313e-16,
        -1.0,
        0.0,
        0.0,
        1.0,
        2.220446049250313e-16,
        0.0,
        0.0,
        0.0,
        0.0,
        1.0
      ],
      "name": "Sketchfab_model"
    },
    {
      "children": [
        2
      ],
      "name": "root"
    },
    {
      "children": [
        3
      ],
      "matrix": [
        1.0,
        0.0,
        0.0,
        0.0,
        0.0,
        2.220446049250313e-16,
        1.0,
        0.0,
        0.0,
        -1.0,
        2.220446049250313e-16,
        0.0,
        0.0,
        0.0,
        0.0,
        1.0
      ],
      "name": "GLTF_SceneRootNode"
    },
    {
      "children": [
        4
      ],
      "name": "world_0"
    },
    {
      "children": [
        5,
        6
      ],
      "name": "sphere.obj_1"
    },
    {
      "mesh": 0,
      "name": "Object_5"
    },
    {
      "mesh": 1,
      "name": "Object_6"
    }
  ],
  "samplers": [
    {
      "magFilter": 9729,
      "minFilter": 9987,
      "wrapS": 10497,
      "wrapT": 10497
    }
  ],
  "scene": 0,
  "scenes": [
    {
      "name": "Sketchfab_Scene",
      "nodes": [
        0
      ]
    }
  ],
  "textures": [
    {
      "sampler": 0,
      "source": 0
    },
    {
      "sampler": 0,
      "source": 1
    },
    {
      "sampler": 0,
      "source": 2
    }
  ]
}
